<?xml version="1.0"?>
<svg xmlns="http://www.w3.org/2000/svg" xmlns:xlink="http://www.w3.org/1999/xlink" xmlns:svgjs="http://svgjs.com/svgjs" version="1.1" width="512" height="512" x="0" y="0" viewBox="0 0 512 512" style="enable-background:new 0 0 512 512" xml:space="preserve" class=""><g><g xmlns="http://www.w3.org/2000/svg"><g><g><g><g><g id="XMLID_1562_"><g id="XMLID_1563_"><g id="XMLID_1564_"><g id="XMLID_1565_"><g id="XMLID_1566_"><g id="XMLID_1567_"><g id="XMLID_1568_"><g id="XMLID_1569_"><g id="XMLID_1570_"><g id="XMLID_1571_"><g id="XMLID_1572_"><g id="XMLID_1573_"><g id="XMLID_1574_"><g id="XMLID_1575_"><g><path d="m512 256c0 57.829-19.176 111.171-51.516 154.032-.297.393-129.591 2.146-204.484 2.146s-204.187-1.752-204.484-2.146c-32.34-42.861-51.516-96.203-51.516-154.032 0-141.38 114.62-256 256-256s256 114.62 256 256z" fill="#84dbff" data-original="#ff6cce" style="" class=""/></g></g></g></g></g></g></g></g></g></g></g></g></g></g></g></g></g></g></g><path d="m460.484 410.032c32.34-42.861 51.516-96.203 51.516-154.032 0-13.043-.982-25.855-2.864-38.373l-159.671-159.671-218.203 177.038 77.661 77.937-157.395 97.104c.745.397 129.71 2.143 204.472 2.143 74.893 0 204.187-1.752 204.484-2.146z" fill="#84dbff" data-original="#e020aa" style="" class=""/><g><path d="m198.783 256.78h114.474v118.361h-114.474z" fill="#ffd194" data-original="#ffd194" style="" class=""/><path d="m256.02 256.784h57.237v118.361h-57.237z" fill="#ffb171" data-original="#ffb171" style="" class=""/><path d="m346.964 155.069c-3.842-56.867-51.022-77.883-90.944-77.883s-87.103 21.016-90.944 77.883c-10.324 1.947-17.657 15.148-16.503 25.822l1.77 24.291c1.211 11.209 11.317 19.392 22.454 18.174l1.921-.203c22.814 59.727 58.592 65.954 81.302 69.451 22.71-3.497 58.488-9.724 81.302-69.451l1.921.203c11.137 1.218 21.243-6.965 22.455-18.174l1.77-24.291c1.153-10.673-6.18-23.875-16.504-25.822z" fill="#ffe9c5" data-original="#ffe9c5" style="" class=""/><g><path d="m237.975 286.55h-25.577c-23.113 0-44.242-12.661-55.142-33.042l-10.893-20.367 26.454-14.148 10.893 20.367c5.671 10.603 16.663 17.19 28.688 17.19h25.577z" fill="#ffffff" data-original="#ffffff" style="" class=""/></g><path d="m363.467 180.892-1.77 24.291c-1.211 11.209-11.317 19.392-22.455 18.174l-1.921-.203c-7.797 20.389-17.099 34.55-26.874 44.486-18.849 19.171-39.468 22.658-54.428 24.965v-215.418c39.922 0 87.103 21.016 90.944 77.883 10.325 1.946 17.658 15.148 16.504 25.822z" fill="#ffd194" data-original="#ffd194" style="" class=""/><path d="m256.013 43.523c-116.096-5.111-107.44 147.322-107.44 147.322l22.447 8.516 27.763-83.914c37.337 11.135 77.111 11.136 114.449.004l.012-.004 27.933 84.084 22.277-8.686s8.655-152.433-107.441-147.322z" fill="#474d54" data-original="#474d54" style="" class=""/><path d="m363.45 190.84-22.27 8.69-27.94-84.08h-.01c-18.67 5.57-37.95 8.35-57.23 8.35v-80.28h.01c95.06-4.18 106.48 97.24 107.51 134.14.21 8.17-.07 13.18-.07 13.18z" fill="#282e33" data-original="#282e33" style="" class=""/><path d="m460.48 385v25.04c-46.72 61.93-120.93 101.96-204.48 101.96s-157.76-40.03-204.48-101.96v-25.04c0-29.38 24.81-53.2 55.41-53.2h95.13l54.77 35.4 53.11-35.4h95.13c30.6 0 55.41 23.82 55.41 53.2z" fill="#6c2ac4" data-original="#6c2ac4" style="" class=""/><path d="m460.48 385v25.04c-46.72 61.93-120.93 101.96-204.48 101.96v-145.34l.83.54 53.11-35.4h95.13c30.6 0 55.41 23.82 55.41 53.2z" fill="#3c1784" data-original="#3c1784" style="" class=""/><path d="m199.608 312.214-38.674 18.936 58.169 83.281 36.94-47.628z" fill="#ffe45f" data-original="#ffe45f" style=""/><path d="m312.479 312.191 38.674 18.936-58.169 83.28-36.941-47.628z" fill="#ffb531" data-original="#ffb531" style="" class=""/><g><path d="m381.08 177.659h-30v-39.814c0-47.957-39.016-86.973-86.973-86.973h-16.174c-47.957 0-86.973 39.016-86.973 86.973v39.814h-30v-39.814c0-64.499 52.474-116.973 116.973-116.973h16.174c64.499 0 116.973 52.474 116.973 116.973z" fill="#ffffff" data-original="#ffffff" style="" class=""/></g><g><g><path d="m381.08 137.84v39.82h-30v-39.82c0-47.95-39.02-86.97-86.97-86.97h-8.11v-30h8.11c64.5 0 116.97 52.48 116.97 116.97z" fill="#c0fffa" data-original="#c0fffa" style=""/></g></g><g><path d="m166.841 149.256 11.244 78.152c1.12 7.788-4.77 14.823-12.633 15.09l-10.616.36c-17.796.603-33.314-12.005-36.366-29.548l-5.447-31.302c-3.168-18.206 8.086-35.819 25.939-40.592l11.384-3.044c7.649-2.046 15.367 3.047 16.495 10.884z" fill="#31db95" data-original="#31db95" style=""/></g><path d="m345.199 149.256-11.245 78.152c-1.12 7.788 4.77 14.823 12.633 15.09l10.616.36c17.796.603 33.314-12.005 36.366-29.548l5.447-31.302c3.168-18.206-8.086-35.819-25.939-40.592l-11.384-3.044c-7.648-2.046-15.366 3.047-16.494 10.884z" fill="#0c8e69" data-original="#0c8e69" style="" class=""/><path d="m253.429 295.136h-14.451c-12.011 0-21.838-9.827-21.838-21.838v-3.327c0-12.011 9.827-21.838 21.838-21.838h14.451c12.011 0 21.838 9.827 21.838 21.838v3.327c-.001 12.011-9.828 21.838-21.838 21.838z" fill="#474d54" data-original="#474d54" style="" class=""/><path d="m275.27 269.97v3.33c0 11.14-8.46 20.41-19.27 21.69v-46.71c10.81 1.28 19.27 10.55 19.27 21.69z" fill="#282e33" data-original="#282e33" style="" class=""/></g></g></g></svg>
