<?xml version="1.0"?>
<svg xmlns="http://www.w3.org/2000/svg" xmlns:xlink="http://www.w3.org/1999/xlink" xmlns:svgjs="http://svgjs.com/svgjs" version="1.1" width="512" height="512" x="0" y="0" viewBox="0 0 512 512" style="enable-background:new 0 0 512 512" xml:space="preserve" class=""><g><g xmlns="http://www.w3.org/2000/svg"><g><g><g><g><circle cx="256" cy="256" fill="#84dbff" r="256" data-original="#00ddc1" style="" class=""/></g></g></g></g><path d="m413.412 166.054-78.551-78.551-46.393 49.966-49.966-49.966-61.363 61.363 99.743 99.743-168.756 168.756 87.441 87.441c19.38 4.69 39.612 7.194 60.433 7.194 141.385 0 256-114.615 256-256 0-2.732-.058-5.45-.143-8.162l-88.857-88.857z" fill="#84dbff" data-original="#00baa0" style="" class=""/><g><g><g><g><path d="m256.117 406.686-32.175 10.679h-115.816v-224.849h147.991l28.098 115.928z" fill="#514899" data-original="#514899" style="" class=""/><path d="m403.874 417.365h-115.867l-32.124-10.679v-214.17h147.991z" fill="#39326c" data-original="#39326c" style=""/></g><g><path d="m255.811 417.365h-31.869v-192.706h31.869l6.139 99.356z" fill="#f9163d" data-original="#f9163d" style=""/><path d="m255.761 224.659h32.247v192.706h-32.247z" fill="#c8001c" data-original="#c8001c" style="" class=""/></g></g><g><g><path d="m223.942 246.016h-134.942v-87.035h134.942l31.486 44.874z" fill="#8078be" data-original="#8078be" style=""/><path d="m423 246.016h-134.993l-15.867-43.517 15.867-43.518h134.993z" fill="#514899" data-original="#514899" style="" class=""/></g><g><path d="m256.544 246.016h-32.602v-87.035h32.602l6.72 44.874z" fill="#ff415b" data-original="#ff415b" style=""/><path d="m255.975 158.981h32.033v87.036h-32.033z" fill="#f9163d" data-original="#f9163d" style=""/></g></g></g></g><path d="m238.502 87.503c16.945 16.945 17.498 78.861 17.498 78.861s-61.916-.553-78.861-17.498-16.945-44.418 0-61.363 44.418-16.945 61.363 0z" fill="#ff415b" data-original="#ff415b" style=""/><path d="m273.498 87.503c-16.945 16.945-17.498 78.861-17.498 78.861s61.916-.553 78.861-17.498 16.945-44.418 0-61.363-44.418-16.945-61.363 0z" fill="#f9163d" data-original="#f9163d" style=""/><g><path d="m276.714 158.981-21.286 38.402c-21.209 0-38.402-17.193-38.402-38.402s17.193-38.402 38.402-38.402z" fill="#ffd944" data-original="#ffd944" style=""/><path d="m293.83 158.981c0 21.209-17.193 38.402-38.402 38.402v-76.803c21.209-.001 38.402 17.192 38.402 38.401z" fill="#edbe00" data-original="#edbe00" style=""/></g></g></g></svg>
